<mxfile host="app.diagrams.net" modified="2023-12-19T20:35:54.882Z" agent="Mozilla/5.0 (X11; Linux x86_64) AppleWebKit/537.36 (KHTML, like Gecko) Chrome/119.0.0.0 Safari/537.36" version="22.1.11" etag="WknzOi44ohjjJX3C8A9T" type="github">
  <diagram name="PÃ¡gina-1" id="hzJt2EiITYJST5bsbrZ-">
    <mxGraphModel>
      <root>
        <mxCell id="0" />
        <mxCell id="1" parent="0" />
      </root>
    </mxGraphModel>
  </diagram>
</mxfile>
